<?xml version="1.0" encoding="UTF-8" standalone="no"?> <svg width="64" height="64" viewBox="0 0 64 64" fill="none" xmlns="http://www.w3.org/2000/svg">
<path d="M36 51H28V61H36V51Z" fill="none"/>
<path d="M36 41V47H28V41C28.0016 40.4701 28.2128 39.9623 28.5875 39.5875C28.9623 39.2128 29.4701 39.0016 30 39H34C34.5299 39.0016 35.0377 39.2128 35.4125 39.5875C35.7872 39.9623 35.9984 40.4701 36 41Z" fill="none"/>
<path d="M34 31.82V39H30V31.82C31.3225 32.06 32.6775 32.06 34 31.82V31.82Z" fill="none"/>
<path d="M36 47H28V51H36V47Z" fill="none"/>
<path d="M34 31.82V34.82C32.6775 35.06 31.3225 35.06 30 34.82V31.82C31.3225 32.06 32.6775 32.06 34 31.82V31.82Z" fill="none"/>
<path d="M43 6V22C43.001 22.6575 42.9407 23.3137 42.82 23.96C42.3563 26.4915 41.0197 28.7803 39.0427 30.428C37.0658 32.0758 34.5736 32.9782 32 32.9782C29.4264 32.9782 26.9343 32.0758 24.9573 30.428C22.9803 28.7803 21.6437 26.4915 21.18 23.96C21.0593 23.3137 20.999 22.6575 21 22V6L25 3V22C24.9981 22.8949 25.1714 23.7816 25.51 24.61C26.0296 25.9063 26.9255 27.0172 28.0822 27.7998C29.2389 28.5823 30.6035 29.0005 32 29.0005C33.3965 29.0005 34.7611 28.5823 35.9178 27.7998C37.0745 27.0172 37.9704 25.9063 38.49 24.61C38.8287 23.7816 39.0019 22.8949 39 22V3L43 6Z" fill="none"/>
<path d="M25.51 24.61C25.35 24.6 25.19 24.58 25.03 24.56C23.72 24.41 22.43 24.21 21.18 23.96C21.0593 23.3137 20.999 22.6575 21 22V11.66C21.64 11.83 22.31 11.98 23 12.11C23.65 12.24 24.32 12.36 25 12.46V22C24.9981 22.8949 25.1714 23.7816 25.51 24.61V24.61Z" fill="none"/>
<path d="M43 11.66V22C43.001 22.6575 42.9408 23.3137 42.82 23.96C41.57 24.21 40.2801 24.41 38.9701 24.56C38.8101 24.58 38.6501 24.6 38.4901 24.61C38.8287 23.7816 39.002 22.8949 39 22V12.46C39.68 12.36 40.35 12.24 41 12.11C41.69 11.98 42.36 11.83 43 11.66Z" fill="none"/>
<path d="M41 10.11C41.69 9.98 42.36 9.83 43 9.66C44.3568 9.32233 45.6924 8.90494 47 8.41C48.2635 7.93845 49.4931 7.38046 50.68 6.74C51.3714 6.36507 52.1299 6.13 52.9122 6.04821C53.6944 5.96642 54.4851 6.0395 55.2391 6.26329C55.9931 6.48708 56.6957 6.85719 57.3067 7.35249C57.9176 7.8478 58.4251 8.45859 58.8 9.15C59.1749 9.84141 59.41 10.5999 59.4918 11.3821C59.5736 12.1644 59.5005 12.9551 59.2767 13.7091C59.0529 14.4631 58.6828 15.1657 58.1875 15.7767C57.6922 16.3876 57.0814 16.8951 56.39 17.27C52.1914 19.4992 47.6755 21.0708 43 21.93C41.69 22.19 40.34 22.4 38.97 22.56C36.6568 22.8346 34.3294 22.9715 32 22.97C29.6706 22.9715 27.3432 22.8346 25.03 22.56C23.66 22.4 22.31 22.19 21 21.93C16.3246 21.0708 11.8087 19.4992 7.61 17.27C6.66055 16.7541 5.86834 15.9909 5.31731 15.0614C4.76628 14.1318 4.47696 13.0706 4.48 11.99C4.48147 10.9535 4.75213 9.93519 5.26547 9.03476C5.77881 8.13433 6.51723 7.38267 7.4084 6.85341C8.29957 6.32416 9.31292 6.03545 10.3492 6.01557C11.3855 5.99568 12.4092 6.24531 13.32 6.74C14.5069 7.38046 15.7365 7.93845 17 8.41C18.3076 8.90494 19.6433 9.32233 21 9.66C21.64 9.83 22.31 9.98 23 10.11C23.65 10.24 24.32 10.36 25 10.46C26.28 10.65 27.61 10.8 29 10.87C29.97 10.94 30.97 10.97 32 10.97C33.03 10.97 34.03 10.94 35 10.87C36.39 10.8 37.72 10.65 39 10.46C39.68 10.36 40.35 10.24 41 10.11Z" fill="none"/>
<path d="M58.47 7.06C57.4102 5.98676 56.0291 5.28882 54.5364 5.07223C53.0437 4.85564 51.5211 5.13224 50.2 5.86C48.2311 6.91528 46.1519 7.75032 44 8.35V6C43.999 5.84495 43.9623 5.6922 43.893 5.55351C43.8237 5.41483 43.7234 5.29389 43.6 5.2L39.6 2.2C39.4515 2.08857 39.2748 2.02072 39.0898 2.00404C38.9049 1.98736 38.7189 2.02252 38.5528 2.10557C38.3867 2.18863 38.247 2.31629 38.1494 2.47427C38.0517 2.63225 38 2.81429 38 3V9.59C36.01 9.84234 34.006 9.96926 32 9.97C29.994 9.96926 27.9901 9.84234 26 9.59V3C26 2.81429 25.9483 2.63225 25.8507 2.47427C25.753 2.31629 25.6133 2.18863 25.4472 2.10557C25.2811 2.02252 25.0952 1.98736 24.9102 2.00404C24.7253 2.02072 24.5486 2.08857 24.4 2.2L20.4 5.2C20.2766 5.29389 20.1764 5.41483 20.1071 5.55351C20.0377 5.6922 20.0011 5.84495 20 6V8.35C17.8482 7.75032 15.7689 6.91528 13.8 5.86C12.1721 4.9973 10.2695 4.81199 8.5057 5.34434C6.74191 5.87668 5.25951 7.08366 4.38071 8.70293C3.5019 10.3222 3.29771 12.2229 3.81253 13.9919C4.32735 15.7609 5.51956 17.2552 7.13003 18.15C11.1877 20.2964 15.5368 21.8394 20.04 22.73C20.195 25.2568 21.145 27.6699 22.7544 29.6241C24.3637 31.5783 26.5498 32.9734 29 33.61V38.18C28.4173 38.3876 27.9126 38.7696 27.5548 39.2742C27.1969 39.7788 27.0032 40.3814 27 41V61C27 61.2652 27.1054 61.5196 27.2929 61.7071C27.4805 61.8946 27.7348 62 28 62H36C36.2652 62 36.5196 61.8946 36.7071 61.7071C36.8947 61.5196 37 61.2652 37 61V41C36.9968 40.3814 36.8031 39.7788 36.4453 39.2742C36.0874 38.7696 35.5828 38.3876 35 38.18V33.61C37.4577 32.9875 39.6524 31.5963 41.2641 29.6392C42.8758 27.6821 43.8203 25.2615 43.96 22.73C48.4632 21.8394 52.8124 20.2964 56.87 18.15C57.8256 17.6301 58.6467 16.8943 59.2681 16.0013C59.8894 15.1083 60.2938 14.0827 60.4492 13.006C60.6045 11.9292 60.5065 10.8311 60.1629 9.79887C59.8193 8.76666 59.2397 7.82885 58.47 7.06ZM40 5L42 6.5V8.87C41.36 9.02 40.7 9.16 40 9.28V5ZM22 6.5L24 5V9.28C23.3 9.16 22.64 9.02 22 8.87V6.5ZM35 60H29V52H35V60ZM35 50H29V48H35V50ZM35 46H29V41C29 40.7348 29.1054 40.4804 29.2929 40.2929C29.4805 40.1054 29.7348 40 30 40H34C34.2652 40 34.5196 40.1054 34.7071 40.2929C34.8947 40.4804 35 40.7348 35 41V46ZM31 38V33.95C31.33 33.98 31.66 34 32 34C32.34 34 32.67 33.98 33 33.95V38H31ZM39.07 29.07C37.7418 30.4001 36.0651 31.3283 34.2328 31.748C32.4005 32.1676 30.4869 32.0616 28.7122 31.4422C26.9374 30.8228 25.3735 29.715 24.2003 28.2464C23.0271 26.7777 22.2921 25.0077 22.08 23.14C22.76 23.25 23.45 23.34 24.14 23.43C24.4726 25.2725 25.4418 26.9395 26.8784 28.1401C28.3151 29.3406 30.1278 29.9984 32 29.9984C33.8723 29.9984 35.685 29.3406 37.1216 28.1401C38.5583 26.9395 39.5275 25.2725 39.86 23.43C40.55 23.34 41.25 23.25 41.93 23.14C41.6838 25.3858 40.6742 27.4791 39.07 29.07ZM26.25 23.68C28.15 23.86 30.06 23.97 32 23.97C33.9205 23.9661 35.8396 23.866 37.75 23.67C37.3871 24.9155 36.631 26.0102 35.5946 26.7906C34.5583 27.571 33.2973 27.9953 32 28C30.703 28.0001 29.4409 27.5789 28.4039 26.7998C27.3669 26.0207 26.611 24.9258 26.25 23.68V23.68ZM58.47 12.71C58.3625 13.4814 58.0747 14.2166 57.6299 14.856C57.1851 15.4954 56.5959 16.0209 55.91 16.39C49.31 19.99 40.82 21.97 32 21.97C23.18 21.97 14.69 19.99 8.09003 16.39C7.11479 15.862 6.34318 15.0242 5.89701 14.0089C5.45084 12.9936 5.35553 11.8587 5.62612 10.7832C5.89671 9.70771 6.51779 8.75299 7.39131 8.06973C8.26483 7.38647 9.34103 7.01361 10.45 7.01C11.285 7.01169 12.1064 7.22134 12.84 7.62C13.8637 8.1684 14.9189 8.65591 16 9.08V15H18V9.81C19.313 10.2496 20.6482 10.6201 22 10.92V16H24V11.31C25.3 11.53 26.64 11.68 28 11.79V16H30V11.92C30.66 11.94 31.33 11.97 32 11.97C32.67 11.97 33.34 11.94 34 11.92V16H36V11.79C37.36 11.68 38.7 11.53 40 11.31V16H42V10.92C43.3518 10.6201 44.687 10.2496 46 9.81V15H48V9.08C49.0812 8.65591 50.1363 8.1684 51.16 7.62C51.9721 7.17816 52.8912 6.97104 53.8143 7.02184C54.7374 7.07264 55.6281 7.37935 56.3868 7.90764C57.1455 8.43593 57.7422 9.16495 58.1102 10.0131C58.4781 10.8612 58.6027 11.7951 58.47 12.71Z" fill="#da292a"/>
</svg>
